# xmcd
#
# Track frame offsets: 
#        150
#        3757
#        17585
#        32980
#        48205
#        64296
#        79255
#        101042
#        116161
#        132594
#        149371
#        167880
#
# Disc length: 2493 seconds
#
# Revision: 0
# Processed by: cddbd v1.5.2PL0 Copyright (c) Steve Scherf et al.
# Submitted via: ExactAudioCopyFreeDBPlugin 1.0
#
DISCID=a509bb0c
DTITLE=Colton Dixon - A Messenger
DYEAR=1900
DGENRE=
TTITLE0=Intro
TTITLE1=Noise
TTITLE2=I’ll Be the Light
TTITLE3=You Are
TTITLE4=Never Gone
TTITLE5=Love Has Come for Me
TTITLE6=Scars
TTITLE7=Rise
TTITLE8=Where My Heart Goes
TTITLE9=This Is Who I Am
TTITLE10=In and Out of Time
TTITLE11=Let Them See You
EXTD=
EXTT0=
EXTT1=
EXTT2=
EXTT3=
EXTT4=
EXTT5=
EXTT6=
EXTT7=
EXTT8=
EXTT9=
EXTT10=
EXTT11=
PLAYORDER=
